<svg width="168" height="168" viewBox="0 0 168 168" fill="none" xmlns="http://www.w3.org/2000/svg">
<path d="M30.789 163.794H16.191C9.56362 163.794 4.19104 158.421 4.19104 151.794V16.206C4.19104 9.57859 9.56362 4.20601 16.191 4.20601H30.789H57.387M30.789 163.794H45.387C52.0144 163.794 57.387 158.421 57.387 151.794V84M30.789 163.794V83.728C30.789 71.8559 46.1862 67.193 52.7729 77.0705L110.603 163.794M137.211 4.20599H151.809C158.436 4.20599 163.809 9.57858 163.809 16.206V151.794C163.809 158.421 158.436 163.794 151.809 163.794H137.211H110.613M137.211 4.20599H122.613C115.985 4.20599 110.613 9.57858 110.613 16.206V83.9999M137.211 4.20599V84.2719C137.211 96.144 121.814 100.807 115.227 90.9294L57.3969 4.20599" stroke="#a8ff78" stroke-width="8" stroke-linecap="round" stroke-linejoin="round"/>
</svg>
